
<svg id="svg2" xmlns:rdf="http://www.w3.org/1999/02/22-rdf-syntax-ns#" xmlns="http://www.w3.org/2000/svg" xml:space="preserve" height="337.5" viewBox="0 0 335 337.5" width="335" version="1.1" xmlns:cc="http://creativecommons.org/ns#" xmlns:dc="http://purl.org/dc/elements/1.1/">
    <defs id="defs6">
        <clipPath id="clipPath16" clipPathUnits="userSpaceOnUse">
            <path id="path18" d="m0 270h268v-270h-268v270z"/>
        </clipPath>
        <clipPath id="clipPath32" clipPathUnits="userSpaceOnUse">
            <path id="path34" d="m0 270h268v-270h-268v270z"/>
        </clipPath>
    </defs>
    <g id="g10" transform="matrix(1.25,0,0,-1.25,0,337.5)">
        <g id="g12">
            <g id="g14" clip-path="url(#clipPath16)">
                <g id="g20" transform="translate(137.74 66.333)">
                    <path id="path22" d="m0 0c.985 19.151 11.538 50.256 26.833 69.833 8.333 10.667 12.167 21.063 12.167 27.37 0 21.907-17.551 39.667-39.2 39.667h-.001c-21.65 0-39.2-17.76-39.2-39.667 0-6.307 3.834-16.703 12.167-27.37 15.295-19.577 25.847-50.682 26.833-69.833h.401z"
                          fill="#f2756a"/>
                </g>
                <g id="g24" transform="translate(137.54 201.7)">
                    <path id="path26" d="m0 0c-20.788 0-37.701-17.122-37.701-38.167 0-5.203 3.103-15.251 11.848-26.446 13.075-16.735 22.476-41.346 25.852-60.042 3.377 18.696 12.778 43.307 25.853 60.042 8.745 11.2 11.848 21.248 11.848 26.451 0 21.045-16.912 38.167-37.7 38.167m1.625-136.87h-3.251l-.073 1.423c-.949 18.441-11.127 49.288-26.517 68.987-9.205 11.783-12.485 22.341-12.485 28.293 0 22.7 18.258 41.167 40.7 41.167s40.701-18.467 40.701-41.167c0-5.952-3.28-16.51-12.485-28.293-15.39-19.699-25.568-50.55-26.517-68.99l-.073-1.423z"/>
                </g>
            </g>
        </g>
        <g id="g28">
            <g id="g30" clip-path="url(#clipPath32)">
                <g id="g36" transform="translate(153.96 165)">
                    <path id="path38" d="m0 0c0-9.182-7.443-16.625-16.625-16.625s-16.625 7.443-16.625 16.625 7.443 16.625 16.625 16.625 16.625-7.443 16.625-16.625"/>
                </g>
            </g>
        </g>
    </g>
</svg>
